<svg xmlns="http://www.w3.org/2000/svg" viewBox="0 0 268.14 257.19"><defs><style>.cls-1{fill:#fff;}</style></defs><g id="Layer_3" data-name="Layer 3"><path class="cls-1" d="M139.49,51.26c-50.81,0-81.6,32.77-81.6,82.26,0,45.08,29,79.39,78.3,79.39,49,0,81.81-33.43,81.81-82.47C218,83.15,186.55,51.26,139.49,51.26Zm22.67,131A49.11,49.11,0,0,1,138.39,190c-.84,0-12.87.19-23.64-6.25-25.1-15-24.21-54.48-24.09-59.72.61-27,14.1-56.18,29.49-60.43,5.12-1.42,9.52-.28,17.8-.11,10.71.22,9.6-1.76,18.84-.6,15.71,2,28.58,34.34,28.44,62.62C185.19,133.21,185,167,162.16,182.29Z"/><path class="cls-1" d="M137.44,68.7c-6.67,0-11.42,0-11.55.86s5.57,3.39,11.68,3.51c6.46.14,12.57-2.27,12.44-3.33S144.48,68.73,137.44,68.7Z"/></g></svg>